<svg width="28" height="28" viewBox="0 0 28 28" fill="none" xmlns="http://www.w3.org/2000/svg">
<g id="Frame 2996">
<g id="Group">
<g id="Group_2">
<path id="Vector" d="M4.42188 23.9987C4.42188 17.5587 8.71521 12.332 14.0002 12.332C19.2852 12.332 23.5785 17.5587 23.5785 23.9987" fill="#CDD8F4"/>
</g>
<g id="Group_3">
<g id="Group_4">
<path id="Vector_2" d="M14.0007 4.66683C14.164 4.66683 14.3973 4.70183 14.6073 4.90016L23.334 12.7402V22.1785C23.334 22.8202 22.8906 23.3335 22.3423 23.3335H5.65898C5.11065 23.3335 4.66732 22.8202 4.66732 22.1785V12.7402L13.394 4.90016C13.604 4.70183 13.8373 4.66683 14.0007 4.66683ZM14.0007 2.3335C13.219 2.3335 12.449 2.6135 11.8307 3.16183L2.88232 11.2002C2.53232 11.5152 2.33398 11.9702 2.33398 12.4368V22.1785C2.33398 24.1035 3.82732 25.6668 5.65898 25.6668H22.3307C24.174 25.6668 25.6556 24.1035 25.6556 22.1785V12.4368C25.6556 11.9585 25.4573 11.5152 25.1073 11.2002L16.159 3.16183C15.5523 2.6135 14.7823 2.3335 14.0007 2.3335Z" fill="#9DB4F0"/>
</g>
<g id="Group_5">
<path id="Vector_3" d="M14.0703 20.6617H13.9303C13.277 20.6617 12.752 20.1367 12.752 19.4834V16.8351C12.752 16.1817 13.277 15.6567 13.9303 15.6567H14.0703C14.7236 15.6567 15.2486 16.1817 15.2486 16.8351V19.4834C15.2486 20.1367 14.7236 20.6617 14.0703 20.6617Z" fill="#9DB4F0"/>
</g>
</g>
</g>
</g>
</svg>
