<svg width="28" height="28" viewBox="0 0 28 28" fill="none" xmlns="http://www.w3.org/2000/svg">
<g id="Frame 2997">
<g id="Group">
<g id="Group_2">
<path id="Vector" d="M4.42188 23.9987C4.42188 17.5587 8.71521 12.332 14.0002 12.332C19.2852 12.332 23.5785 17.5587 23.5785 23.9987" fill="#A7BFFF"/>
</g>
<g id="Group_3">
<path id="Vector_2" d="M14.0007 4.66683C14.164 4.66683 14.3973 4.70183 14.6073 4.90016L23.334 12.7402V22.1785C23.334 22.8202 22.8907 23.3335 22.3423 23.3335H5.67065C5.12232 23.3335 4.67899 22.8202 4.67899 22.1785V12.7402L13.4057 4.90016C13.6157 4.70183 13.849 4.66683 14.0007 4.66683ZM14.0007 2.3335C13.219 2.3335 12.449 2.6135 11.8307 3.16183L2.88232 11.2002C2.53232 11.5152 2.33398 11.9702 2.33398 12.4368V22.1785C2.33398 24.1035 3.82732 25.6668 5.65899 25.6668H22.3307C24.174 25.6668 25.6557 24.1035 25.6557 22.1785V12.4368C25.6557 11.9585 25.4573 11.5152 25.1073 11.2002L16.159 3.16183C15.564 2.6135 14.7823 2.3335 14.0007 2.3335Z" fill="#4F80FF"/>
</g>
<path id="Vector_3" d="M10.8262 24.6749V19.2499C10.8262 17.4883 12.2495 16.0649 14.0112 16.0649C15.7728 16.0649 17.1962 17.4883 17.1962 19.2499V24.6049" stroke="#4F80FF" stroke-width="2" stroke-miterlimit="10"/>
</g>
</g>
</svg>
