<svg width="28" height="28" viewBox="0 0 28 28" fill="none" xmlns="http://www.w3.org/2000/svg">
<g id="Frame 2998">
<g id="Group">
<g id="Group_2">
<path id="Vector" d="M5.79883 24.9203C6.33549 25.3753 7.02383 25.6553 7.79383 25.6553H19.8222C20.5805 25.6553 21.2688 25.3753 21.8172 24.9203C20.5688 22.482 17.4538 20.7437 13.8138 20.7437C10.1738 20.7437 7.04716 22.482 5.79883 24.9203Z" fill="#CDD8F4"/>
</g>
<g id="Group_3">
<path id="Vector_2" d="M13.8001 16.6602C17.7563 16.6602 20.9634 13.453 20.9634 9.49683C20.9634 5.54063 17.7563 2.3335 13.8001 2.3335C9.84385 2.3335 6.63672 5.54063 6.63672 9.49683C6.63672 13.453 9.84385 16.6602 13.8001 16.6602Z" stroke="#9DB4F0" stroke-width="2" stroke-miterlimit="10"/>
<path id="Vector_3" d="M19.821 25.6552H7.79268C6.06602 25.6552 4.66602 24.2552 4.66602 22.5285C4.66602 20.8019 6.06602 19.4019 7.79268 19.4019H19.821C21.5477 19.4019 22.9477 20.8019 22.9477 22.5285C22.9477 24.2669 21.5477 25.6552 19.821 25.6552Z" stroke="#9DB4F0" stroke-width="2" stroke-miterlimit="10"/>
<g id="Group_4">
<path id="Vector_4" d="M16.2632 12.1568C16.2632 12.8335 15.7149 13.3818 15.0382 13.3818H12.5766C11.8999 13.3818 11.3516 12.8335 11.3516 12.1568C11.3516 11.4802 11.8999 10.9318 12.5766 10.9318H15.0382C15.7149 10.9202 16.2632 11.4685 16.2632 12.1568Z" fill="#9DB4F0"/>
</g>
</g>
</g>
</g>
</svg>
